<svg xmlns="http://www.w3.org/2000/svg" xmlns:xlink="http://www.w3.org/1999/xlink" width="500" zoomAndPan="magnify" viewBox="0 0 375 374.999991" height="500" preserveAspectRatio="xMidYMid meet" version="1.0"><defs><g/></defs><g fill="#ffffff" fill-opacity="1"><g transform="translate(2.824223, 221.508969)"><g><path d="M 24.953125 -29.03125 C 28.453125 -28.257812 31.289062 -27.289062 33.46875 -26.125 C 35.65625 -24.957031 37.316406 -23.691406 38.453125 -22.328125 C 39.597656 -20.972656 40.382812 -19.59375 40.8125 -18.1875 C 41.25 -16.78125 41.46875 -15.445312 41.46875 -14.1875 C 41.46875 -11.46875 40.726562 -8.941406 39.25 -6.609375 C 37.769531 -4.285156 35.578125 -2.429688 32.671875 -1.046875 C 29.765625 0.328125 26.175781 1.015625 21.90625 1.015625 C 17.632812 1.015625 13.894531 0.347656 10.6875 -0.984375 C 7.488281 -2.316406 4.894531 -3.929688 2.90625 -5.828125 L 9.234375 -15.9375 C 8.898438 -12.6875 9.457031 -9.882812 10.90625 -7.53125 C 12.363281 -5.175781 14.378906 -3.378906 16.953125 -2.140625 C 19.523438 -0.910156 22.242188 -0.296875 25.109375 -0.296875 C 27.921875 -0.296875 30.085938 -0.828125 31.609375 -1.890625 C 33.140625 -2.960938 34.207031 -4.296875 34.8125 -5.890625 C 35.425781 -7.492188 35.734375 -9.070312 35.734375 -10.625 C 35.734375 -13.09375 35.148438 -15.019531 33.984375 -16.40625 C 32.816406 -17.789062 31.175781 -18.894531 29.0625 -19.71875 C 26.957031 -20.539062 24.445312 -21.289062 21.53125 -21.96875 C 16.976562 -23.09375 13.453125 -24.523438 10.953125 -26.265625 C 8.453125 -28.015625 6.726562 -29.921875 5.78125 -31.984375 C 4.832031 -34.046875 4.359375 -36.046875 4.359375 -37.984375 C 4.359375 -42.203125 6.019531 -45.582031 9.34375 -48.125 C 12.664062 -50.675781 17.191406 -51.953125 22.921875 -51.953125 C 27.085938 -51.953125 30.585938 -51.304688 33.421875 -50.015625 C 36.265625 -48.734375 38.660156 -47.171875 40.609375 -45.328125 L 34.125 -35.078125 C 34.507812 -38.367188 34.046875 -41.175781 32.734375 -43.5 C 31.429688 -45.832031 29.601562 -47.617188 27.25 -48.859375 C 24.894531 -50.097656 22.359375 -50.71875 19.640625 -50.71875 C 17.367188 -50.71875 15.539062 -50.289062 14.15625 -49.4375 C 12.769531 -48.59375 11.773438 -47.476562 11.171875 -46.09375 C 10.566406 -44.707031 10.265625 -43.191406 10.265625 -41.546875 C 10.265625 -38.785156 10.953125 -36.59375 12.328125 -34.96875 C 13.710938 -33.34375 15.53125 -32.09375 17.78125 -31.21875 C 20.039062 -30.34375 22.429688 -29.613281 24.953125 -29.03125 Z M 24.953125 -29.03125 "/></g></g></g><g fill="#ffffff" fill-opacity="1"><g transform="translate(47.208871, 221.508969)"><g><path d="M 10.921875 1.171875 L 5.53125 -0.65625 L 5.75 -5.015625 L 5.75 -39.65625 C 5.75 -41.207031 5.320312 -41.992188 4.46875 -42.015625 C 3.625 -42.046875 2.015625 -41.722656 -0.359375 -41.046875 L -0.359375 -41.46875 L 13.03125 -47.65625 L 12.4375 -44.671875 L 12.4375 -35.296875 L 21.25 -35.296875 L 20.890625 -33.546875 L 12.4375 -33.546875 L 12.4375 -1.3125 L 21.25 -1.59375 L 21.25 -1.3125 L 12.4375 1.171875 Z M 10.921875 1.171875 "/></g></g></g><g fill="#ffffff" fill-opacity="1"><g transform="translate(70.274334, 221.508969)"><g><path d="M 23.4375 -35.65625 C 24.113281 -35.65625 24.753906 -35.59375 25.359375 -35.46875 C 25.960938 -35.351562 26.601562 -35.125 27.28125 -34.78125 L 21.03125 -24.59375 L 20.734375 -24.59375 C 21.703125 -27.019531 21.882812 -28.789062 21.28125 -29.90625 C 20.675781 -31.019531 19.789062 -31.578125 18.625 -31.578125 C 17.414062 -31.578125 16.335938 -31.113281 15.390625 -30.1875 C 14.441406 -29.269531 13.675781 -28.070312 13.09375 -26.59375 C 12.507812 -25.113281 12.097656 -23.523438 11.859375 -21.828125 L 11.859375 -6.765625 C 11.859375 -4.828125 12.0625 -3.394531 12.46875 -2.46875 C 12.882812 -1.550781 13.628906 -0.726562 14.703125 0 L 4.796875 0 L 5.171875 -5.015625 L 5.171875 -32.96875 C 4.679688 -33.300781 4.007812 -33.585938 3.15625 -33.828125 C 2.3125 -34.078125 1.503906 -34.222656 0.734375 -34.265625 L 0.734375 -34.5625 L 12.21875 -35.65625 L 11.859375 -30.265625 L 11.859375 -27.9375 L 12.8125 -27.9375 C 13.632812 -30.269531 15.003906 -32.140625 16.921875 -33.546875 C 18.835938 -34.953125 21.007812 -35.65625 23.4375 -35.65625 Z M 23.4375 -35.65625 "/></g></g></g><g fill="#ffffff" fill-opacity="1"><g transform="translate(98.6514, 221.508969)"><g><path d="M 36.53125 -7.28125 L 36.890625 -6.984375 C 35.828125 -4.941406 33.898438 -3.179688 31.109375 -1.703125 C 28.316406 -0.222656 25.054688 0.515625 21.328125 0.515625 C 17.972656 0.515625 14.898438 -0.160156 12.109375 -1.515625 C 9.328125 -2.878906 7.097656 -4.859375 5.421875 -7.453125 C 3.742188 -10.046875 2.90625 -13.164062 2.90625 -16.8125 C 2.90625 -20.738281 3.851562 -24.109375 5.75 -26.921875 C 7.644531 -29.734375 10.128906 -31.90625 13.203125 -33.4375 C 16.285156 -34.96875 19.570312 -35.734375 23.0625 -35.734375 C 26.070312 -35.734375 28.570312 -35.207031 30.5625 -34.15625 C 32.550781 -33.113281 34.015625 -31.828125 34.953125 -30.296875 C 35.898438 -28.773438 36.363281 -27.238281 36.34375 -25.6875 C 36.320312 -24.132812 35.847656 -22.835938 34.921875 -21.796875 C 34.003906 -20.753906 32.625 -20.234375 30.78125 -20.234375 L 9.96875 -20.234375 C 10.019531 -16.929688 10.640625 -13.945312 11.828125 -11.28125 C 13.015625 -8.613281 14.6875 -6.515625 16.84375 -4.984375 C 19 -3.453125 21.535156 -2.6875 24.453125 -2.6875 C 25.753906 -2.6875 27.191406 -2.859375 28.765625 -3.203125 C 30.347656 -3.546875 31.851562 -4.054688 33.28125 -4.734375 C 34.71875 -5.410156 35.800781 -6.257812 36.53125 -7.28125 Z M 20.453125 -34.421875 C 17.492188 -34.421875 15.054688 -33.28125 13.140625 -31 C 11.222656 -28.71875 10.164062 -25.515625 9.96875 -21.390625 L 27.875 -21.609375 C 28.738281 -21.609375 29.34375 -22.046875 29.6875 -22.921875 C 30.03125 -23.796875 30.09375 -24.863281 29.875 -26.125 C 29.65625 -27.382812 29.164062 -28.65625 28.40625 -29.9375 C 27.65625 -31.226562 26.613281 -32.296875 25.28125 -33.140625 C 23.945312 -33.992188 22.335938 -34.421875 20.453125 -34.421875 Z M 20.453125 -34.421875 "/></g></g></g><g fill="#ffffff" fill-opacity="1"><g transform="translate(137.724433, 221.508969)"><g><path d="M 36.53125 -7.28125 L 36.890625 -6.984375 C 35.828125 -4.941406 33.898438 -3.179688 31.109375 -1.703125 C 28.316406 -0.222656 25.054688 0.515625 21.328125 0.515625 C 17.972656 0.515625 14.898438 -0.160156 12.109375 -1.515625 C 9.328125 -2.878906 7.097656 -4.859375 5.421875 -7.453125 C 3.742188 -10.046875 2.90625 -13.164062 2.90625 -16.8125 C 2.90625 -20.738281 3.851562 -24.109375 5.75 -26.921875 C 7.644531 -29.734375 10.128906 -31.90625 13.203125 -33.4375 C 16.285156 -34.96875 19.570312 -35.734375 23.0625 -35.734375 C 26.070312 -35.734375 28.570312 -35.207031 30.5625 -34.15625 C 32.550781 -33.113281 34.015625 -31.828125 34.953125 -30.296875 C 35.898438 -28.773438 36.363281 -27.238281 36.34375 -25.6875 C 36.320312 -24.132812 35.847656 -22.835938 34.921875 -21.796875 C 34.003906 -20.753906 32.625 -20.234375 30.78125 -20.234375 L 9.96875 -20.234375 C 10.019531 -16.929688 10.640625 -13.945312 11.828125 -11.28125 C 13.015625 -8.613281 14.6875 -6.515625 16.84375 -4.984375 C 19 -3.453125 21.535156 -2.6875 24.453125 -2.6875 C 25.753906 -2.6875 27.191406 -2.859375 28.765625 -3.203125 C 30.347656 -3.546875 31.851562 -4.054688 33.28125 -4.734375 C 34.71875 -5.410156 35.800781 -6.257812 36.53125 -7.28125 Z M 20.453125 -34.421875 C 17.492188 -34.421875 15.054688 -33.28125 13.140625 -31 C 11.222656 -28.71875 10.164062 -25.515625 9.96875 -21.390625 L 27.875 -21.609375 C 28.738281 -21.609375 29.34375 -22.046875 29.6875 -22.921875 C 30.03125 -23.796875 30.09375 -24.863281 29.875 -26.125 C 29.65625 -27.382812 29.164062 -28.65625 28.40625 -29.9375 C 27.65625 -31.226562 26.613281 -32.296875 25.28125 -33.140625 C 23.945312 -33.992188 22.335938 -34.421875 20.453125 -34.421875 Z M 20.453125 -34.421875 "/></g></g></g><g fill="#ffffff" fill-opacity="1"><g transform="translate(176.797467, 221.508969)"><g><path d="M 10.921875 1.171875 L 5.53125 -0.65625 L 5.75 -5.015625 L 5.75 -39.65625 C 5.75 -41.207031 5.320312 -41.992188 4.46875 -42.015625 C 3.625 -42.046875 2.015625 -41.722656 -0.359375 -41.046875 L -0.359375 -41.46875 L 13.03125 -47.65625 L 12.4375 -44.671875 L 12.4375 -35.296875 L 21.25 -35.296875 L 20.890625 -33.546875 L 12.4375 -33.546875 L 12.4375 -1.3125 L 21.25 -1.59375 L 21.25 -1.3125 L 12.4375 1.171875 Z M 10.921875 1.171875 "/></g></g></g><g fill="#ffffff" fill-opacity="1"><g transform="translate(199.86293, 221.508969)"><g/></g></g><g fill="#ffffff" fill-opacity="1"><g transform="translate(214.415259, 221.508969)"><g><path d="M 65.421875 -50.9375 L 78.8125 -50.9375 L 78.8125 -50.640625 C 77.789062 -50.347656 76.863281 -49.945312 76.03125 -49.4375 C 75.207031 -48.9375 74.421875 -48.125 73.671875 -47 C 72.921875 -45.882812 72.132812 -44.257812 71.3125 -42.125 L 55.8125 -2.46875 L 48.96875 2.25 L 49.1875 0.734375 L 38.5625 -26.703125 L 29.328125 -2.46875 L 22.484375 2.25 L 22.703125 0.734375 L 4.65625 -45.984375 C 4.3125 -46.953125 3.820312 -47.894531 3.1875 -48.8125 C 2.5625 -49.738281 1.984375 -50.445312 1.453125 -50.9375 L 19.71875 -50.9375 L 19.71875 -50.640625 C 18.019531 -50.492188 16.613281 -50.175781 15.5 -49.6875 C 14.382812 -49.207031 13.679688 -48.382812 13.390625 -47.21875 C 13.097656 -46.0625 13.363281 -44.390625 14.1875 -42.203125 L 28.53125 -4.359375 L 37.765625 -28.8125 L 31.140625 -45.984375 C 30.804688 -46.953125 30.320312 -47.894531 29.6875 -48.8125 C 29.0625 -49.738281 28.476562 -50.445312 27.9375 -50.9375 L 46.203125 -50.9375 L 46.203125 -50.640625 C 44.503906 -50.492188 43.097656 -50.175781 41.984375 -49.6875 C 40.867188 -49.207031 40.164062 -48.382812 39.875 -47.21875 C 39.582031 -46.0625 39.847656 -44.390625 40.671875 -42.203125 L 55.015625 -4.359375 L 69.703125 -42.203125 C 70.535156 -44.335938 70.84375 -45.953125 70.625 -47.046875 C 70.40625 -48.140625 69.820312 -48.9375 68.875 -49.4375 C 67.925781 -49.945312 66.773438 -50.347656 65.421875 -50.640625 Z M 65.421875 -50.9375 "/></g></g></g><g fill="#ffffff" fill-opacity="1"><g transform="translate(294.671434, 221.508969)"><g><path d="M 37.546875 -5.96875 C 37.546875 -4.03125 37.75 -2.625 38.15625 -1.75 C 38.570312 -0.875 39.316406 -0.0703125 40.390625 0.65625 L 40.390625 0.875 L 29.03125 -1.375 C 29.03125 -1.375 29.039062 -1.375 29.0625 -1.375 C 29.09375 -1.375 29.109375 -1.398438 29.109375 -1.453125 C 27.941406 -0.828125 26.628906 -0.34375 25.171875 0 C 23.722656 0.34375 22.148438 0.515625 20.453125 0.515625 C 17.097656 0.515625 14.097656 -0.148438 11.453125 -1.484375 C 8.816406 -2.828125 6.734375 -4.742188 5.203125 -7.234375 C 3.671875 -9.734375 2.90625 -12.734375 2.90625 -16.234375 C 2.90625 -19.722656 3.726562 -22.945312 5.375 -25.90625 C 7.03125 -28.863281 9.53125 -31.238281 12.875 -33.03125 C 16.226562 -34.832031 20.425781 -35.734375 25.46875 -35.734375 C 27.789062 -35.734375 29.9375 -35.515625 31.90625 -35.078125 C 33.875 -34.640625 35.753906 -33.957031 37.546875 -33.03125 Z M 9.96875 -20.15625 C 9.96875 -16.707031 10.609375 -13.5625 11.890625 -10.71875 C 13.179688 -7.882812 14.941406 -5.644531 17.171875 -4 C 19.398438 -2.351562 21.898438 -1.53125 24.671875 -1.53125 C 26.078125 -1.53125 27.25 -1.757812 28.1875 -2.21875 C 29.132812 -2.675781 29.972656 -3.296875 30.703125 -4.078125 C 30.753906 -4.460938 30.789062 -4.882812 30.8125 -5.34375 C 30.84375 -5.8125 30.859375 -6.332031 30.859375 -6.90625 L 30.859375 -30.34375 C 29.785156 -31.507812 28.507812 -32.46875 27.03125 -33.21875 C 25.550781 -33.96875 23.816406 -34.34375 21.828125 -34.34375 C 18.097656 -34.34375 15.1875 -33.054688 13.09375 -30.484375 C 11.007812 -27.910156 9.96875 -24.46875 9.96875 -20.15625 Z M 9.96875 -20.15625 "/></g></g></g><g fill="#ffffff" fill-opacity="1"><g transform="translate(337.964659, 221.508969)"><g><path d="M 11.859375 -7.0625 C 11.859375 -5.113281 12.097656 -3.59375 12.578125 -2.5 C 13.066406 -1.414062 14.210938 -0.679688 16.015625 -0.296875 L 16.015625 0 L 4.515625 0 L 5.171875 -4.515625 L 5.171875 -47.953125 C 5.171875 -49.410156 4.753906 -50.140625 3.921875 -50.140625 C 3.097656 -50.140625 1.546875 -49.796875 -0.734375 -49.109375 L -0.734375 -49.546875 L 12.21875 -55.671875 L 11.859375 -52.828125 Z M 11.859375 -7.0625 "/></g></g></g><g fill="#ffffff" fill-opacity="1"><g transform="translate(355.063665, 221.508969)"><g><path d="M 11.859375 -7.0625 C 11.859375 -5.113281 12.097656 -3.59375 12.578125 -2.5 C 13.066406 -1.414062 14.210938 -0.679688 16.015625 -0.296875 L 16.015625 0 L 4.515625 0 L 5.171875 -4.515625 L 5.171875 -47.953125 C 5.171875 -49.410156 4.753906 -50.140625 3.921875 -50.140625 C 3.097656 -50.140625 1.546875 -49.796875 -0.734375 -49.109375 L -0.734375 -49.546875 L 12.21875 -55.671875 L 11.859375 -52.828125 Z M 11.859375 -7.0625 "/></g></g></g></svg>