<svg xmlns="http://www.w3.org/2000/svg" xmlns:xlink="http://www.w3.org/1999/xlink" width="500" zoomAndPan="magnify" viewBox="0 0 375 374.999991" height="500" preserveAspectRatio="xMidYMid meet" version="1.0"><defs><g/></defs><rect x="-37.5" width="450" fill="#ffffff" y="-37.499999" height="449.999989" fill-opacity="1"/><rect x="-37.5" width="450" fill="#ffffff" y="-37.499999" height="449.999989" fill-opacity="1"/><g fill="#000000" fill-opacity="1"><g transform="translate(51.568143, 208.201126)"><g><path d="M 18.375 -21.375 C 20.945312 -20.800781 23.035156 -20.082031 24.640625 -19.21875 C 26.242188 -18.363281 27.460938 -17.4375 28.296875 -16.4375 C 29.140625 -15.4375 29.722656 -14.421875 30.046875 -13.390625 C 30.367188 -12.359375 30.53125 -11.375 30.53125 -10.4375 C 30.53125 -8.4375 29.984375 -6.578125 28.890625 -4.859375 C 27.804688 -3.148438 26.191406 -1.785156 24.046875 -0.765625 C 21.898438 0.242188 19.257812 0.75 16.125 0.75 C 12.976562 0.75 10.226562 0.257812 7.875 -0.71875 C 5.519531 -1.707031 3.609375 -2.894531 2.140625 -4.28125 L 6.796875 -11.734375 C 6.546875 -9.335938 6.957031 -7.273438 8.03125 -5.546875 C 9.101562 -3.816406 10.582031 -2.492188 12.46875 -1.578125 C 14.363281 -0.671875 16.367188 -0.21875 18.484375 -0.21875 C 20.546875 -0.21875 22.140625 -0.609375 23.265625 -1.390625 C 24.390625 -2.179688 25.175781 -3.164062 25.625 -4.34375 C 26.070312 -5.519531 26.296875 -6.675781 26.296875 -7.8125 C 26.296875 -9.632812 25.867188 -11.054688 25.015625 -12.078125 C 24.160156 -13.097656 22.953125 -13.910156 21.390625 -14.515625 C 19.835938 -15.117188 17.992188 -15.671875 15.859375 -16.171875 C 12.492188 -16.992188 9.890625 -18.046875 8.046875 -19.328125 C 6.210938 -20.617188 4.945312 -22.019531 4.25 -23.53125 C 3.5625 -25.050781 3.21875 -26.523438 3.21875 -27.953125 C 3.21875 -31.066406 4.4375 -33.5625 6.875 -35.4375 C 9.320312 -37.3125 12.65625 -38.25 16.875 -38.25 C 19.945312 -38.25 22.523438 -37.773438 24.609375 -36.828125 C 26.703125 -35.878906 28.460938 -34.726562 29.890625 -33.375 L 25.125 -25.8125 C 25.40625 -28.238281 25.0625 -30.304688 24.09375 -32.015625 C 23.132812 -33.734375 21.789062 -35.046875 20.0625 -35.953125 C 18.332031 -36.867188 16.46875 -37.328125 14.46875 -37.328125 C 12.78125 -37.328125 11.425781 -37.015625 10.40625 -36.390625 C 9.394531 -35.765625 8.664062 -34.941406 8.21875 -33.921875 C 7.769531 -32.910156 7.546875 -31.796875 7.546875 -30.578125 C 7.546875 -28.546875 8.054688 -26.929688 9.078125 -25.734375 C 10.097656 -24.535156 11.4375 -23.613281 13.09375 -22.96875 C 14.757812 -22.332031 16.519531 -21.800781 18.375 -21.375 Z M 18.375 -21.375 "/></g></g></g><g fill="#000000" fill-opacity="1"><g transform="translate(84.237025, 208.201126)"><g><path d="M 8.03125 0.859375 L 4.078125 -0.484375 L 4.234375 -3.703125 L 4.234375 -29.1875 C 4.234375 -30.332031 3.921875 -30.910156 3.296875 -30.921875 C 2.671875 -30.941406 1.484375 -30.703125 -0.265625 -30.203125 L -0.265625 -30.53125 L 9.59375 -35.078125 L 9.15625 -32.890625 L 9.15625 -25.984375 L 15.640625 -25.984375 L 15.375 -24.6875 L 9.15625 -24.6875 L 9.15625 -0.96875 L 15.640625 -1.171875 L 15.640625 -0.96875 L 9.15625 0.859375 Z M 8.03125 0.859375 "/></g></g></g><g fill="#000000" fill-opacity="1"><g transform="translate(101.214131, 208.201126)"><g><path d="M 17.25 -26.25 C 17.75 -26.25 18.222656 -26.203125 18.671875 -26.109375 C 19.117188 -26.023438 19.585938 -25.859375 20.078125 -25.609375 L 15.484375 -18.109375 L 15.265625 -18.109375 C 15.984375 -19.890625 16.117188 -21.191406 15.671875 -22.015625 C 15.222656 -22.835938 14.570312 -23.25 13.71875 -23.25 C 12.820312 -23.25 12.023438 -22.90625 11.328125 -22.21875 C 10.628906 -21.539062 10.066406 -20.65625 9.640625 -19.5625 C 9.210938 -18.476562 8.910156 -17.3125 8.734375 -16.0625 L 8.734375 -4.984375 C 8.734375 -3.554688 8.882812 -2.5 9.1875 -1.8125 C 9.488281 -1.132812 10.03125 -0.53125 10.8125 0 L 3.53125 0 L 3.796875 -3.703125 L 3.796875 -24.265625 C 3.441406 -24.515625 2.953125 -24.726562 2.328125 -24.90625 C 1.703125 -25.082031 1.101562 -25.191406 0.53125 -25.234375 L 0.53125 -25.4375 L 9 -26.25 L 8.734375 -22.28125 L 8.734375 -20.5625 L 9.421875 -20.5625 C 10.035156 -22.28125 11.046875 -23.65625 12.453125 -24.6875 C 13.859375 -25.726562 15.457031 -26.25 17.25 -26.25 Z M 17.25 -26.25 "/></g></g></g><g fill="#000000" fill-opacity="1"><g transform="translate(122.10079, 208.201126)"><g><path d="M 26.890625 -5.359375 L 27.15625 -5.140625 C 26.375 -3.640625 24.953125 -2.34375 22.890625 -1.25 C 20.835938 -0.164062 18.4375 0.375 15.6875 0.375 C 13.226562 0.375 10.972656 -0.125 8.921875 -1.125 C 6.867188 -2.125 5.222656 -3.578125 3.984375 -5.484375 C 2.753906 -7.398438 2.140625 -9.695312 2.140625 -12.375 C 2.140625 -15.269531 2.835938 -17.75 4.234375 -19.8125 C 5.628906 -21.882812 7.457031 -23.484375 9.71875 -24.609375 C 11.988281 -25.734375 14.410156 -26.296875 16.984375 -26.296875 C 19.191406 -26.296875 21.023438 -25.910156 22.484375 -25.140625 C 23.953125 -24.378906 25.035156 -23.4375 25.734375 -22.3125 C 26.429688 -21.1875 26.769531 -20.050781 26.75 -18.90625 C 26.738281 -17.757812 26.390625 -16.800781 25.703125 -16.03125 C 25.023438 -15.269531 24.007812 -14.890625 22.65625 -14.890625 L 7.34375 -14.890625 C 7.375 -12.460938 7.828125 -10.265625 8.703125 -8.296875 C 9.578125 -6.335938 10.804688 -4.796875 12.390625 -3.671875 C 13.984375 -2.546875 15.851562 -1.984375 18 -1.984375 C 18.957031 -1.984375 20.015625 -2.109375 21.171875 -2.359375 C 22.335938 -2.609375 23.445312 -2.984375 24.5 -3.484375 C 25.550781 -3.984375 26.347656 -4.609375 26.890625 -5.359375 Z M 15.046875 -25.328125 C 12.867188 -25.328125 11.070312 -24.488281 9.65625 -22.8125 C 8.25 -21.132812 7.476562 -18.78125 7.34375 -15.75 L 20.515625 -15.90625 C 21.160156 -15.90625 21.609375 -16.226562 21.859375 -16.875 C 22.109375 -17.519531 22.148438 -18.304688 21.984375 -19.234375 C 21.828125 -20.160156 21.46875 -21.09375 20.90625 -22.03125 C 20.351562 -22.976562 19.585938 -23.765625 18.609375 -24.390625 C 17.628906 -25.015625 16.441406 -25.328125 15.046875 -25.328125 Z M 15.046875 -25.328125 "/></g></g></g><g fill="#000000" fill-opacity="1"><g transform="translate(150.860111, 208.201126)"><g><path d="M 26.890625 -5.359375 L 27.15625 -5.140625 C 26.375 -3.640625 24.953125 -2.34375 22.890625 -1.25 C 20.835938 -0.164062 18.4375 0.375 15.6875 0.375 C 13.226562 0.375 10.972656 -0.125 8.921875 -1.125 C 6.867188 -2.125 5.222656 -3.578125 3.984375 -5.484375 C 2.753906 -7.398438 2.140625 -9.695312 2.140625 -12.375 C 2.140625 -15.269531 2.835938 -17.75 4.234375 -19.8125 C 5.628906 -21.882812 7.457031 -23.484375 9.71875 -24.609375 C 11.988281 -25.734375 14.410156 -26.296875 16.984375 -26.296875 C 19.191406 -26.296875 21.023438 -25.910156 22.484375 -25.140625 C 23.953125 -24.378906 25.035156 -23.4375 25.734375 -22.3125 C 26.429688 -21.1875 26.769531 -20.050781 26.75 -18.90625 C 26.738281 -17.757812 26.390625 -16.800781 25.703125 -16.03125 C 25.023438 -15.269531 24.007812 -14.890625 22.65625 -14.890625 L 7.34375 -14.890625 C 7.375 -12.460938 7.828125 -10.265625 8.703125 -8.296875 C 9.578125 -6.335938 10.804688 -4.796875 12.390625 -3.671875 C 13.984375 -2.546875 15.851562 -1.984375 18 -1.984375 C 18.957031 -1.984375 20.015625 -2.109375 21.171875 -2.359375 C 22.335938 -2.609375 23.445312 -2.984375 24.5 -3.484375 C 25.550781 -3.984375 26.347656 -4.609375 26.890625 -5.359375 Z M 15.046875 -25.328125 C 12.867188 -25.328125 11.070312 -24.488281 9.65625 -22.8125 C 8.25 -21.132812 7.476562 -18.78125 7.34375 -15.75 L 20.515625 -15.90625 C 21.160156 -15.90625 21.609375 -16.226562 21.859375 -16.875 C 22.109375 -17.519531 22.148438 -18.304688 21.984375 -19.234375 C 21.828125 -20.160156 21.46875 -21.09375 20.90625 -22.03125 C 20.351562 -22.976562 19.585938 -23.765625 18.609375 -24.390625 C 17.628906 -25.015625 16.441406 -25.328125 15.046875 -25.328125 Z M 15.046875 -25.328125 "/></g></g></g><g fill="#000000" fill-opacity="1"><g transform="translate(179.619432, 208.201126)"><g><path d="M 8.03125 0.859375 L 4.078125 -0.484375 L 4.234375 -3.703125 L 4.234375 -29.1875 C 4.234375 -30.332031 3.921875 -30.910156 3.296875 -30.921875 C 2.671875 -30.941406 1.484375 -30.703125 -0.265625 -30.203125 L -0.265625 -30.53125 L 9.59375 -35.078125 L 9.15625 -32.890625 L 9.15625 -25.984375 L 15.640625 -25.984375 L 15.375 -24.6875 L 9.15625 -24.6875 L 9.15625 -0.96875 L 15.640625 -1.171875 L 15.640625 -0.96875 L 9.15625 0.859375 Z M 8.03125 0.859375 "/></g></g></g><g fill="#000000" fill-opacity="1"><g transform="translate(196.596538, 208.201126)"><g/></g></g><g fill="#000000" fill-opacity="1"><g transform="translate(207.307636, 208.201126)"><g><path d="M 48.15625 -37.5 L 58.015625 -37.5 L 58.015625 -37.28125 C 57.265625 -37.0625 56.582031 -36.765625 55.96875 -36.390625 C 55.363281 -36.015625 54.785156 -35.414062 54.234375 -34.59375 C 53.679688 -33.78125 53.097656 -32.585938 52.484375 -31.015625 L 41.078125 -1.828125 L 36.046875 1.65625 L 36.203125 0.53125 L 28.390625 -19.65625 L 21.578125 -1.828125 L 16.546875 1.65625 L 16.71875 0.53125 L 3.421875 -33.84375 C 3.171875 -34.5625 2.8125 -35.257812 2.34375 -35.9375 C 1.882812 -36.613281 1.460938 -37.132812 1.078125 -37.5 L 14.515625 -37.5 L 14.515625 -37.28125 C 13.265625 -37.175781 12.226562 -36.941406 11.40625 -36.578125 C 10.582031 -36.222656 10.0625 -35.613281 9.84375 -34.75 C 9.632812 -33.894531 9.832031 -32.664062 10.4375 -31.0625 L 21 -3.21875 L 27.796875 -21.203125 L 22.921875 -33.84375 C 22.671875 -34.5625 22.3125 -35.257812 21.84375 -35.9375 C 21.382812 -36.613281 20.957031 -37.132812 20.5625 -37.5 L 34.015625 -37.5 L 34.015625 -37.28125 C 32.765625 -37.175781 31.726562 -36.941406 30.90625 -36.578125 C 30.082031 -36.222656 29.5625 -35.613281 29.34375 -34.75 C 29.132812 -33.894531 29.332031 -32.664062 29.9375 -31.0625 L 40.5 -3.21875 L 51.3125 -31.0625 C 51.914062 -32.632812 52.132812 -33.820312 51.96875 -34.625 C 51.8125 -35.425781 51.382812 -36.015625 50.6875 -36.390625 C 50 -36.765625 49.15625 -37.0625 48.15625 -37.28125 Z M 48.15625 -37.5 "/></g></g></g><g fill="#000000" fill-opacity="1"><g transform="translate(266.379402, 208.201126)"><g><path d="M 27.640625 -4.390625 C 27.640625 -2.960938 27.789062 -1.925781 28.09375 -1.28125 C 28.394531 -0.644531 28.941406 -0.0546875 29.734375 0.484375 L 29.734375 0.640625 L 21.375 -1.015625 C 21.375 -1.015625 21.378906 -1.015625 21.390625 -1.015625 C 21.410156 -1.015625 21.421875 -1.035156 21.421875 -1.078125 C 20.566406 -0.609375 19.601562 -0.25 18.53125 0 C 17.457031 0.25 16.296875 0.375 15.046875 0.375 C 12.585938 0.375 10.382812 -0.113281 8.4375 -1.09375 C 6.488281 -2.082031 4.953125 -3.492188 3.828125 -5.328125 C 2.703125 -7.171875 2.140625 -9.375 2.140625 -11.9375 C 2.140625 -14.507812 2.742188 -16.882812 3.953125 -19.0625 C 5.171875 -21.238281 7.007812 -22.988281 9.46875 -24.3125 C 11.9375 -25.632812 15.03125 -26.296875 18.75 -26.296875 C 20.457031 -26.296875 22.035156 -26.132812 23.484375 -25.8125 C 24.929688 -25.488281 26.316406 -24.988281 27.640625 -24.3125 Z M 7.34375 -14.84375 C 7.34375 -12.300781 7.8125 -9.984375 8.75 -7.890625 C 9.695312 -5.804688 10.992188 -4.15625 12.640625 -2.9375 C 14.285156 -1.726562 16.125 -1.125 18.15625 -1.125 C 19.195312 -1.125 20.0625 -1.289062 20.75 -1.625 C 21.445312 -1.96875 22.066406 -2.425781 22.609375 -3 C 22.640625 -3.28125 22.660156 -3.59375 22.671875 -3.9375 C 22.691406 -4.28125 22.703125 -4.664062 22.703125 -5.09375 L 22.703125 -22.328125 C 21.921875 -23.191406 20.984375 -23.898438 19.890625 -24.453125 C 18.804688 -25.003906 17.53125 -25.28125 16.0625 -25.28125 C 13.3125 -25.28125 11.171875 -24.332031 9.640625 -22.4375 C 8.109375 -20.550781 7.34375 -18.019531 7.34375 -14.84375 Z M 7.34375 -14.84375 "/></g></g></g><g fill="#000000" fill-opacity="1"><g transform="translate(298.244952, 208.201126)"><g><path d="M 8.734375 -5.203125 C 8.734375 -3.765625 8.910156 -2.644531 9.265625 -1.84375 C 9.617188 -1.039062 10.457031 -0.5 11.78125 -0.21875 L 11.78125 0 L 3.328125 0 L 3.796875 -3.328125 L 3.796875 -35.296875 C 3.796875 -36.367188 3.492188 -36.90625 2.890625 -36.90625 C 2.285156 -36.90625 1.144531 -36.65625 -0.53125 -36.15625 L -0.53125 -36.46875 L 9 -40.96875 L 8.734375 -38.890625 Z M 8.734375 -5.203125 "/></g></g></g><g fill="#000000" fill-opacity="1"><g transform="translate(310.830507, 208.201126)"><g><path d="M 8.734375 -5.203125 C 8.734375 -3.765625 8.910156 -2.644531 9.265625 -1.84375 C 9.617188 -1.039062 10.457031 -0.5 11.78125 -0.21875 L 11.78125 0 L 3.328125 0 L 3.796875 -3.328125 L 3.796875 -35.296875 C 3.796875 -36.367188 3.492188 -36.90625 2.890625 -36.90625 C 2.285156 -36.90625 1.144531 -36.65625 -0.53125 -36.15625 L -0.53125 -36.46875 L 9 -40.96875 L 8.734375 -38.890625 Z M 8.734375 -5.203125 "/></g></g></g></svg>